<?xml version="1.0" encoding="UTF-8"?>
<!-- Created with Inkscape (http://www.inkscape.org/) -->
<svg version="1.0" viewBox="0 0 514 663" xmlns="http://www.w3.org/2000/svg" xmlns:cc="http://creativecommons.org/ns#" xmlns:dc="http://purl.org/dc/elements/1.1/" xmlns:rdf="http://www.w3.org/1999/02/22-rdf-syntax-ns#" xmlns:xlink="http://www.w3.org/1999/xlink">
	<metadata>
		<rdf:RDF>
			<cc:Work rdf:about="">
				<dc:format>image/svg+xml</dc:format>
				<dc:type rdf:resource="http://purl.org/dc/dcmitype/StillImage"/>
			</cc:Work>
		</rdf:RDF>
	</metadata>
	<defs>
		<linearGradient id="linearGradient6081">
			<stop stop-color="#b1b1b1" offset="0"/>
			<stop stop-color="#ddd" offset="1"/>
		</linearGradient>
		<linearGradient id="linearGradient6087" x1="20.992" x2="80.761" y1="334.12" y2="334.12" gradientUnits="userSpaceOnUse" xlink:href="#linearGradient6081"/>
		<linearGradient id="linearGradient8034" x1="390.74" x2="109.69" y1="315.17" y2="45.483" gradientUnits="userSpaceOnUse" xlink:href="#linearGradient6081"/>
	</defs>
	<rect x="20.992" y="24.491" width="472.32" height="619.27" rx="26.321" ry="26.321" fill="url(#linearGradient6087)" stroke="#797979" stroke-width="2.5"/>
	<path d="m465.71 29.665h-380.48l-0.07117 608.92h380.55c12.442 0 22.459-11.543 22.459-25.881v-557.16c0-14.338-10.017-25.881-22.459-25.881z" fill="url(#linearGradient8034)" opacity=".53226" stroke="#747474" stroke-width="10"/>
	<text x="105.87347" y="206.21556" font-family="'Bitstream Vera Sans'" font-size="77.756px" style="line-height:0%" xml:space="preserve"><tspan x="105.87347" y="206.21556" style="line-height:1.25"><tspan x="105.87347" y="206.21556">No Cover </tspan><tspan x="488.88345" y="206.21556" dx="0"/></tspan><tspan x="109.0627" y="303.4108" style="line-height:1.25"><tspan x="109.0627" y="303.4108">Available</tspan></tspan></text>
	<text x="159.15567" y="418.35046" font-family="'Bitstream Vera Sans'" font-size="40px" style="line-height:0%" xml:space="preserve"><tspan x="159.15567" y="418.35046" style="line-height:1.25"><tspan x="159.15567" y="418.35046">Click here to</tspan><tspan x="410.40558" y="418.35046" dx="0"/></tspan><tspan x="198.02283" y="468.35043" style="line-height:1.25"><tspan x="198.02283" y="468.35043">upload a </tspan><tspan x="384.27283" y="468.35043" dx="0"/></tspan><tspan x="199.8197" y="518.3504" style="line-height:1.25"><tspan x="199.8197" y="518.3504">new one</tspan></tspan></text>
</svg>
